<svg width="44" height="44" viewBox="0 0 44 44" fill="none" xmlns="http://www.w3.org/2000/svg">
<path fill-rule="evenodd" clip-rule="evenodd" d="M12.9882 20.3214L15.6775 12.2535H19.156L21.8453 20.3214L29.9131 23.0107V26.4892L21.8453 29.1785L19.156 37.2464H15.6775L12.9882 29.1785L4.92029 26.4892V23.0107L12.9882 20.3214ZM17.4167 18.6308L16.1768 22.3505L15.0173 23.51L11.2975 24.75L15.0173 25.9899L16.1768 27.1494L17.4167 30.8691L18.6566 27.1494L19.8161 25.9899L23.5359 24.75L19.8161 23.51L18.6566 22.3505L17.4167 18.6308Z" fill="white"/>
<path fill-rule="evenodd" clip-rule="evenodd" d="M29.6096 9.44282L31.0398 5.1521H33.1269L34.5572 9.44282L38.8479 10.8731V12.9602L34.5572 14.3904L33.1269 18.6811H31.0398L29.6096 14.3904L25.3189 12.9602V10.8731L29.6096 9.44282Z" fill="white"/>
</svg>
