<svg width="22" height="20" viewBox="0 0 22 20" fill="none" xmlns="http://www.w3.org/2000/svg">
<path fill-rule="evenodd" clip-rule="evenodd" d="M0.987438 0.953251C1.67201 0.299711 2.75513 0.013134 3.80282 0.480348L20.3125 7.84285C22.229 8.6975 22.229 11.3032 20.3125 12.1579L3.80282 19.5204C2.75513 19.9876 1.67201 19.701 0.987438 19.0475C0.297103 18.3884 -0.0216945 17.3122 0.529276 16.2802L3.68131 10.3765L4.34291 10.7298L3.68131 10.3765C3.8086 10.1381 3.8086 9.86263 3.68131 9.62421L0.529276 3.72049C-0.0216958 2.68853 0.297102 1.6123 0.987438 0.953251ZM2.02323 2.03821C1.74905 2.29996 1.66253 2.65823 1.85249 3.01402L1.19088 3.36725L1.85249 3.01402L5.00452 8.91773C5.36753 9.59764 5.36753 10.4031 5.00452 11.083L1.85249 16.9867C1.66253 17.3425 1.74905 17.7008 2.02323 17.9625C2.30317 18.2298 2.74374 18.3503 3.19189 18.1504L19.7016 10.7879C20.4326 10.4619 20.4327 9.53881 19.7016 9.2128L3.19189 1.8503C2.74374 1.65045 2.30317 1.77096 2.02323 2.03821Z" fill="white"/>
</svg>
