<svg width="26" height="26" viewBox="0 0 26 26" fill="none" xmlns="http://www.w3.org/2000/svg">
<path fill-rule="evenodd" clip-rule="evenodd" d="M13 2.97919C7.46561 2.97919 2.97913 7.46567 2.97913 13C2.97913 14.6045 3.35561 16.1187 4.02432 17.4613C4.29271 18.0001 4.39606 18.6445 4.22673 19.2774L3.58149 21.6889C3.46298 22.1318 3.86818 22.537 4.31108 22.4185L6.72262 21.7733C7.3555 21.6039 7.99984 21.7073 8.53869 21.9757C9.88126 22.6444 11.3955 23.0209 13 23.0209C18.5343 23.0209 23.0208 18.5344 23.0208 13C23.0208 7.46567 18.5343 2.97919 13 2.97919ZM1.35413 13C1.35413 6.5682 6.56814 1.35419 13 1.35419C19.4318 1.35419 24.6458 6.5682 24.6458 13C24.6458 19.4318 19.4318 24.6459 13 24.6459C11.1385 24.6459 9.37678 24.2085 7.8142 23.4302C7.58103 23.3141 7.34294 23.2894 7.14264 23.343L4.73109 23.9883C3.08027 24.43 1.57001 22.9197 2.01171 21.2689L2.65695 18.8573C2.71054 18.657 2.6859 18.419 2.56976 18.1858C1.79147 16.6232 1.35413 14.8615 1.35413 13ZM7.85413 11.375C7.85413 10.9263 8.21789 10.5625 8.66663 10.5625H17.3333C17.782 10.5625 18.1458 10.9263 18.1458 11.375C18.1458 11.8238 17.782 12.1875 17.3333 12.1875H8.66663C8.21789 12.1875 7.85413 11.8238 7.85413 11.375ZM7.85413 15.1667C7.85413 14.718 8.21789 14.3542 8.66663 14.3542H14.625C15.0737 14.3542 15.4375 14.718 15.4375 15.1667C15.4375 15.6154 15.0737 15.9792 14.625 15.9792H8.66663C8.21789 15.9792 7.85413 15.6154 7.85413 15.1667Z" fill="#F3F3F3"/>
</svg>
