<svg width="104" height="100" viewBox="0 0 104 100" fill="none" xmlns="http://www.w3.org/2000/svg">
<g filter="url(#filter0_di_92_12948)">
<rect x="13" y="19.6553" width="67.3953" height="63" rx="13.186" transform="rotate(-10.8232 13 19.6553)" fill="#E0E6F9"/>
<rect x="13.585" y="20.0525" width="66.3953" height="62" rx="12.686" transform="rotate(-10.8232 13.585 20.0525)" stroke="#DDE5FF"/>
</g>
<g clip-path="url(#clip0_92_12948)">
<path fill-rule="evenodd" clip-rule="evenodd" d="M49.3939 30.5659C41.4297 32.0885 36.2077 39.7791 37.7303 47.7433C38.1717 50.0522 39.1301 52.1277 40.4618 53.8758C40.9963 54.5774 41.3223 55.4762 41.2527 56.4335L40.9876 60.0814C40.9389 60.7513 41.6335 61.2229 42.2382 60.9306L45.5311 59.3386C46.3952 58.9208 47.3509 58.8922 48.2002 59.1302C50.3162 59.7231 52.5988 59.8483 54.9077 59.4069C62.872 57.8843 68.0939 50.1937 66.5713 42.2295C65.0487 34.2653 57.3581 29.0433 49.3939 30.5659ZM35.3918 48.1904C33.6223 38.9346 39.6911 29.9969 48.9468 28.2274C58.2026 26.4579 67.1403 32.5267 68.9098 41.7824C70.6793 51.0381 64.6105 59.9759 55.3548 61.7454C52.676 62.2575 50.0205 62.1128 47.5578 61.4227C47.1903 61.3197 46.8409 61.3498 46.5674 61.482L43.2746 63.074C41.0205 64.1638 38.4316 62.4059 38.6131 59.9088L38.8781 56.2609C38.9001 55.958 38.7992 55.6221 38.5679 55.3185C37.018 53.284 35.904 50.8692 35.3918 48.1904ZM44.2986 44.0636C44.1752 43.4179 44.5986 42.7943 45.2443 42.6709L57.7161 40.2865C58.3619 40.1631 58.9854 40.5865 59.1089 41.2322C59.2323 41.878 58.8089 42.5015 58.1632 42.625L45.6914 45.0093C45.0456 45.1328 44.4221 44.7094 44.2986 44.0636ZM45.3418 49.5201C45.2183 48.8743 45.6417 48.2507 46.2875 48.1273L54.8618 46.488C55.5076 46.3646 56.1312 46.788 56.2546 47.4337C56.3781 48.0795 55.9547 48.7031 55.3089 48.8265L46.7345 50.4658C46.0888 50.5892 45.4652 50.1658 45.3418 49.5201Z" fill="#0E1A45"/>
</g>
<defs>
<filter id="filter0_di_92_12948" x="0.575439" y="0.435782" width="102.876" height="99.3838" filterUnits="userSpaceOnUse" color-interpolation-filters="sRGB">
<feFlood flood-opacity="0" result="BackgroundImageFix"/>
<feColorMatrix in="SourceAlpha" type="matrix" values="0 0 0 0 0 0 0 0 0 0 0 0 0 0 0 0 0 0 127 0" result="hardAlpha"/>
<feOffset dy="5.86047"/>
<feGaussianBlur stdDeviation="7.54535"/>
<feComposite in2="hardAlpha" operator="out"/>
<feColorMatrix type="matrix" values="0 0 0 0 0 0 0 0 0 0 0 0 0 0 0 0 0 0 0.1 0"/>
<feBlend mode="normal" in2="BackgroundImageFix" result="effect1_dropShadow_92_12948"/>
<feBlend mode="normal" in="SourceGraphic" in2="effect1_dropShadow_92_12948" result="shape"/>
<feColorMatrix in="SourceAlpha" type="matrix" values="0 0 0 0 0 0 0 0 0 0 0 0 0 0 0 0 0 0 127 0" result="hardAlpha"/>
<feOffset dx="-1.46512" dy="1.46512"/>
<feGaussianBlur stdDeviation="1.1"/>
<feComposite in2="hardAlpha" operator="arithmetic" k2="-1" k3="1"/>
<feColorMatrix type="matrix" values="0 0 0 0 1 0 0 0 0 1 0 0 0 0 1 0 0 0 0.6 0"/>
<feBlend mode="normal" in2="shape" result="effect2_innerShadow_92_12948"/>
</filter>
<clipPath id="clip0_92_12948">
<rect width="38.093" height="38.093" fill="white" transform="translate(29.8666 29.8555) rotate(-10.8232)"/>
</clipPath>
</defs>
</svg>
