<svg width="16" height="16" viewBox="0 0 16 16" fill="none" xmlns="http://www.w3.org/2000/svg">
<path fill-rule="evenodd" clip-rule="evenodd" d="M7.99998 1.83331C4.59422 1.83331 1.83331 4.59422 1.83331 7.99998C1.83331 8.98735 2.065 9.91918 2.47651 10.7454C2.64167 11.077 2.70527 11.4735 2.60107 11.863L2.204 13.347C2.13107 13.6195 2.38042 13.8689 2.65298 13.796L4.137 13.3989C4.52647 13.2947 4.92298 13.3583 5.25458 13.5234C6.08078 13.935 7.01261 14.1666 7.99998 14.1666C11.4057 14.1666 14.1666 11.4057 14.1666 7.99998C14.1666 4.59422 11.4057 1.83331 7.99998 1.83331ZM0.833313 7.99998C0.833313 4.04194 4.04194 0.833313 7.99998 0.833313C11.958 0.833313 15.1666 4.04194 15.1666 7.99998C15.1666 11.958 11.958 15.1666 7.99998 15.1666C6.85444 15.1666 5.77033 14.8975 4.80875 14.4186C4.66525 14.3471 4.51874 14.3319 4.39547 14.3649L2.91145 14.762C1.89556 15.0338 0.966162 14.1044 1.23798 13.0885L1.63505 11.6045C1.66803 11.4812 1.65287 11.3347 1.5814 11.1912C1.10245 10.2296 0.833313 9.14552 0.833313 7.99998ZM4.83331 6.99998C4.83331 6.72384 5.05717 6.49998 5.33331 6.49998H10.6666C10.9428 6.49998 11.1666 6.72384 11.1666 6.99998C11.1666 7.27612 10.9428 7.49998 10.6666 7.49998H5.33331C5.05717 7.49998 4.83331 7.27612 4.83331 6.99998ZM4.83331 9.33331C4.83331 9.05717 5.05717 8.83331 5.33331 8.83331H8.99998C9.27612 8.83331 9.49998 9.05717 9.49998 9.33331C9.49998 9.60945 9.27612 9.83331 8.99998 9.83331H5.33331C5.05717 9.83331 4.83331 9.60945 4.83331 9.33331Z" fill="#676767"/>
</svg>
