<svg width="20" height="20" viewBox="0 0 20 20" fill="none" xmlns="http://www.w3.org/2000/svg">
<path fill-rule="evenodd" clip-rule="evenodd" d="M4.37502 12.0833C4.37502 11.7382 4.65484 11.4583 5.00002 11.4583H11.6667C12.0119 11.4583 12.2917 11.7382 12.2917 12.0833C12.2917 12.4285 12.0119 12.7083 11.6667 12.7083H5.00002C4.65484 12.7083 4.37502 12.4285 4.37502 12.0833Z" fill="#949494"/>
<path fill-rule="evenodd" clip-rule="evenodd" d="M4.37502 15C4.37502 14.6548 4.65484 14.375 5.00002 14.375H9.58335C9.92853 14.375 10.2084 14.6548 10.2084 15C10.2084 15.3452 9.92853 15.625 9.58335 15.625H5.00002C4.65484 15.625 4.37502 15.3452 4.37502 15Z" fill="#949494"/>
<path fill-rule="evenodd" clip-rule="evenodd" d="M10.2084 2.36181C9.82468 2.29661 9.30167 2.29167 8.35818 2.29167C6.76095 2.29167 5.62564 2.29298 4.7649 2.40818C3.92166 2.52104 3.43713 2.73273 3.08494 3.08492C2.73227 3.4376 2.52087 3.92063 2.40815 4.75904C2.29301 5.61543 2.29169 6.74432 2.29169 8.33334V11.6667C2.29169 13.2557 2.29301 14.3846 2.40815 15.241C2.52087 16.0794 2.73227 16.5624 3.08494 16.9151C3.43761 17.2678 3.92065 17.4791 4.75906 17.5919C5.61545 17.707 6.74434 17.7083 8.33335 17.7083H11.6667C13.2557 17.7083 14.3846 17.707 15.241 17.5919C16.0794 17.4791 16.5624 17.2678 16.9151 16.9151C17.2678 16.5624 17.4792 16.0794 17.5919 15.241C17.707 14.3846 17.7084 13.2557 17.7084 11.6667V11.3024C17.7084 10.0224 17.6994 9.41562 17.5635 8.95834H14.9553C14.0113 8.95836 13.2398 8.95837 12.6308 8.87649C11.9941 8.7909 11.4422 8.60566 11.0016 8.16508C10.561 7.72451 10.3758 7.17256 10.2902 6.53593C10.2083 5.92688 10.2083 5.15544 10.2084 4.21141V2.36181ZM11.4584 3.00788V4.16667C11.4584 5.16643 11.4597 5.85338 11.5291 6.36937C11.596 6.86739 11.7159 7.11158 11.8855 7.2812C12.0551 7.45082 12.2993 7.57068 12.7973 7.63763C13.3133 7.70701 14.0003 7.70834 15 7.70834H16.6829C16.4359 7.46871 16.1194 7.1816 15.7083 6.81168L12.4094 3.8426C12.0049 3.47857 11.7038 3.20985 11.4584 3.00788ZM8.47957 1.04165C9.6334 1.04134 10.3789 1.04114 11.065 1.30442C11.751 1.5677 12.3027 2.06441 13.1561 2.83292C13.1856 2.85945 13.2154 2.8863 13.2456 2.91348L16.5446 5.88256C16.5797 5.91417 16.6144 5.94538 16.6486 5.9762C17.635 6.86341 18.2729 7.43711 18.616 8.20747C18.959 8.97783 18.9588 9.83572 18.9584 11.1624C18.9584 11.2085 18.9584 11.2552 18.9584 11.3024V11.7137C18.9584 13.2451 18.9584 14.4582 18.8307 15.4075C18.6994 16.3845 18.4226 17.1753 17.799 17.799C17.1753 18.4226 16.3846 18.6994 15.4075 18.8307C14.4582 18.9584 13.2452 18.9583 11.7137 18.9583H8.28635C6.75488 18.9583 5.54185 18.9584 4.5925 18.8307C3.61548 18.6994 2.82469 18.4226 2.20106 17.799C1.57742 17.1753 1.30066 16.3845 1.1693 15.4075C1.04166 14.4582 1.04167 13.2451 1.04169 11.7137V8.28632C1.04167 6.75485 1.04166 5.54183 1.1693 4.59248C1.30066 3.61546 1.57742 2.82467 2.20106 2.20104C2.82518 1.57691 3.61862 1.30045 4.59908 1.16923C5.55238 1.04164 6.77144 1.04165 8.31128 1.04167L8.35818 1.04167C8.39914 1.04167 8.4396 1.04166 8.47957 1.04165Z" fill="#949494"/>
</svg>
