<svg width="103" height="100" viewBox="0 0 103 100" fill="none" xmlns="http://www.w3.org/2000/svg">
<g filter="url(#filter0_di_92_12953)">
<rect x="23.8911" y="7" width="67.3953" height="63" rx="13.186" transform="rotate(9.95504 23.8911 7)" fill="#E0E6F9"/>
<rect x="24.2971" y="7.57891" width="66.3953" height="62" rx="12.686" transform="rotate(9.95504 24.2971 7.57891)" stroke="#DDE5FF"/>
</g>
<g clip-path="url(#clip0_92_12953)">
<path fill-rule="evenodd" clip-rule="evenodd" d="M53.3517 26.9579L56.6544 27.5379C59.5271 28.0424 61.8025 28.4419 63.5413 28.9941C65.3307 29.5623 66.7229 30.3419 67.6873 31.7172C68.0647 32.2554 67.9343 32.9977 67.3961 33.3752C66.8579 33.7526 66.1156 33.6223 65.7381 33.084C65.1927 32.3063 64.3563 31.7507 62.8207 31.263C61.2523 30.765 59.1351 30.3906 56.1545 29.8672L53.0281 29.3182C50.0475 28.7948 47.9295 28.4254 46.2851 28.3593C44.6753 28.2945 43.6996 28.5319 42.9219 29.0773C42.1442 29.6227 41.5885 30.4591 41.1009 31.9947C40.6028 33.5632 40.2285 35.6803 39.7051 38.661L38.607 44.9136C38.0836 47.8943 37.7142 50.0123 37.6481 51.6566C37.5834 53.2665 37.8208 54.2422 38.3662 55.0199C38.9116 55.7976 39.748 56.3532 41.2836 56.8409C42.852 57.3389 44.9692 57.7133 47.9498 58.2367L51.0762 58.7857C54.0568 59.3091 56.1748 59.6785 57.8192 59.7446C59.429 59.8094 60.4047 59.572 61.1824 59.0266C62.4613 58.1298 63.0876 56.4973 63.8398 52.5499C63.9628 51.9042 64.5861 51.4804 65.2318 51.6035C65.8776 51.7265 66.3014 52.3498 66.1783 52.9956C65.4571 56.7805 64.7365 59.4419 62.5492 60.9757C61.174 61.9401 59.5995 62.1988 57.7235 62.1233C55.9007 62.05 53.6253 61.6504 50.7526 61.1459L47.4499 60.566C44.5772 60.0615 42.3018 59.662 40.563 59.1098C38.7736 58.5416 37.3814 57.762 36.417 56.3867C35.4527 55.0115 35.194 53.4369 35.2694 51.561C35.3427 49.7382 35.7423 47.4628 36.2468 44.5901L37.3758 38.161C37.8802 35.2883 38.2798 33.0129 38.8319 31.2742C39.4002 29.4848 40.1798 28.0926 41.555 27.1282C42.9303 26.1638 44.5048 25.9051 46.3808 25.9806C48.2036 26.0539 50.479 26.4535 53.3517 26.9579ZM62.968 37.9854C64.9173 36.6185 67.6056 37.0906 68.9726 39.0399C70.3395 40.9892 69.8674 43.6775 67.9181 45.0444L59.1794 51.1724C58.704 51.5059 58.3824 51.7316 58.0339 51.9168C57.6241 52.1346 57.1916 52.3072 56.7444 52.4314C56.3642 52.537 55.9756 52.5949 55.4012 52.6804L51.9535 53.1941C51.1923 53.3075 50.4323 52.9811 49.9905 52.351C49.5486 51.7209 49.5007 50.8952 49.8667 50.2182L51.4909 47.2136C51.5022 47.1927 51.5133 47.1722 51.5243 47.1519C51.8004 46.641 51.9872 46.2953 52.216 45.9738C52.4852 45.5957 52.7947 45.2479 53.1392 44.9368C53.4321 44.6723 53.7538 44.4468 54.2292 44.1135C54.2482 44.1002 54.2673 44.0868 54.2868 44.0731L62.968 37.9854ZM67.0234 40.4067C66.4114 39.5339 65.2076 39.3225 64.3348 39.9346L64.0008 40.1688C64.007 40.2239 64.0149 40.2826 64.0249 40.3447C64.0976 40.7943 64.2781 41.4039 64.7143 42.026C65.1505 42.648 65.6621 43.0255 66.0601 43.2469C66.115 43.2775 66.1676 43.305 66.2172 43.3296L66.5513 43.0953C67.4241 42.4832 67.6355 41.2795 67.0234 40.4067ZM64.1121 44.8058C63.661 44.4575 63.1888 43.9969 62.7652 43.3928C62.3416 42.7887 62.0693 42.1878 61.8956 41.6451L55.6536 46.0223C55.1003 46.4103 54.9057 46.5493 54.7349 46.7035C54.5187 46.8988 54.3244 47.117 54.1555 47.3543C54.022 47.5418 53.9065 47.7512 53.5851 48.3457L52.6298 50.113L52.9939 50.6322L54.9809 50.3361C55.6493 50.2365 55.8855 50.1992 56.1073 50.1376C56.388 50.0597 56.6593 49.9514 56.9165 49.8147C57.1198 49.7066 57.3168 49.571 57.8701 49.183L64.1121 44.8058ZM45.4506 38.0586C45.5643 37.4111 46.1814 36.9784 46.8289 37.0921L56.9894 38.8763C57.6369 38.99 58.0696 39.6071 57.9559 40.2546C57.8422 40.9021 57.2252 41.3348 56.5777 41.2211L46.4171 39.4368C45.7696 39.3231 45.3369 38.7061 45.4506 38.0586ZM44.3526 44.3112C44.4663 43.6637 45.0834 43.231 45.7309 43.3447L49.6388 44.031C50.2863 44.1447 50.719 44.7618 50.6053 45.4092C50.4916 46.0567 49.8745 46.4894 49.227 46.3757L45.3191 45.6895C44.6716 45.5758 44.2389 44.9587 44.3526 44.3112ZM43.2546 50.5639C43.3683 49.9164 43.9854 49.4837 44.6329 49.5974L46.9776 50.0091C47.6251 50.1228 48.0578 50.7399 47.9441 51.3874C47.8304 52.0349 47.2133 52.4676 46.5658 52.3539L44.2211 51.9421C43.5736 51.8284 43.1409 51.2114 43.2546 50.5639Z" fill="#0E1A45"/>
</g>
<defs>
<filter id="filter0_di_92_12953" x="0.419067" y="0.279532" width="102.434" height="98.8643" filterUnits="userSpaceOnUse" color-interpolation-filters="sRGB">
<feFlood flood-opacity="0" result="BackgroundImageFix"/>
<feColorMatrix in="SourceAlpha" type="matrix" values="0 0 0 0 0 0 0 0 0 0 0 0 0 0 0 0 0 0 127 0" result="hardAlpha"/>
<feOffset dy="5.86047"/>
<feGaussianBlur stdDeviation="7.54535"/>
<feComposite in2="hardAlpha" operator="out"/>
<feColorMatrix type="matrix" values="0 0 0 0 0 0 0 0 0 0 0 0 0 0 0 0 0 0 0.1 0"/>
<feBlend mode="normal" in2="BackgroundImageFix" result="effect1_dropShadow_92_12953"/>
<feBlend mode="normal" in="SourceGraphic" in2="effect1_dropShadow_92_12953" result="shape"/>
<feColorMatrix in="SourceAlpha" type="matrix" values="0 0 0 0 0 0 0 0 0 0 0 0 0 0 0 0 0 0 127 0" result="hardAlpha"/>
<feOffset dx="-1.46512" dy="1.46512"/>
<feGaussianBlur stdDeviation="1.1"/>
<feComposite in2="hardAlpha" operator="arithmetic" k2="-1" k3="1"/>
<feColorMatrix type="matrix" values="0 0 0 0 1 0 0 0 0 1 0 0 0 0 1 0 0 0 0.6 0"/>
<feBlend mode="normal" in2="shape" result="effect2_innerShadow_92_12953"/>
</filter>
<clipPath id="clip0_92_12953">
<rect x="36.5881" y="22" width="38.09" height="38.09" rx="5" transform="rotate(9.96 36.5881 22)" fill="white"/>
</clipPath>
</defs>
</svg>
