<svg width="20" height="20" viewBox="0 0 20 20" fill="none" xmlns="http://www.w3.org/2000/svg">
<path fill-rule="evenodd" clip-rule="evenodd" d="M9.95214 1.04169L11.25 1.04169C11.5951 1.04169 11.875 1.32151 11.875 1.66669C11.875 2.01187 11.5951 2.29169 11.25 2.29169H9.99996C8.01811 2.29169 6.59459 2.29301 5.51127 2.43866C4.44594 2.58189 3.80367 2.8543 3.32896 3.32902C2.85424 3.80373 2.58183 4.446 2.4386 5.51133C2.29295 6.59465 2.29163 8.01817 2.29163 10C2.29163 11.9819 2.29295 13.4054 2.4386 14.4887C2.58183 15.554 2.85424 16.1963 3.32896 16.671C3.80367 17.1457 4.44594 17.4181 5.51127 17.5614C6.59459 17.707 8.01811 17.7084 9.99996 17.7084C11.9818 17.7084 13.4053 17.707 14.4886 17.5614C15.554 17.4181 16.1962 17.1457 16.671 16.671C17.1457 16.1963 17.4181 15.554 17.5613 14.4887C17.707 13.4054 17.7083 11.9819 17.7083 10V8.75002C17.7083 8.40484 17.9881 8.12502 18.3333 8.12502C18.6785 8.12502 18.9583 8.40484 18.9583 8.75002V10.0478C18.9583 11.9715 18.9583 13.479 18.8002 14.6553C18.6383 15.8592 18.3005 16.8092 17.5548 17.5549C16.8092 18.3006 15.8592 18.6384 14.6552 18.8002C13.479 18.9584 11.9714 18.9584 10.0478 18.9584H9.95215C8.02849 18.9584 6.52095 18.9584 5.34471 18.8002C4.14077 18.6384 3.19075 18.3006 2.44507 17.5549C1.6994 16.8092 1.36161 15.8592 1.19975 14.6553C1.04161 13.479 1.04162 11.9715 1.04163 10.0478V9.9522C1.04162 8.02854 1.04161 6.52101 1.19975 5.34478C1.36161 4.14083 1.6994 3.19081 2.44507 2.44513C3.19075 1.69946 4.14077 1.36168 5.34471 1.19981C6.52095 1.04167 8.02848 1.04168 9.95214 1.04169ZM13.9754 1.89662C15.1153 0.756711 16.9635 0.756711 18.1034 1.89662C19.2433 3.03652 19.2433 4.88467 18.1034 6.02458L12.5633 11.5647C12.2539 11.8741 12.0601 12.0679 11.8438 12.2366C11.589 12.4353 11.3134 12.6057 11.0217 12.7447C10.7741 12.8627 10.5141 12.9494 10.0989 13.0877L7.67851 13.8945C7.23164 14.0435 6.73896 13.9272 6.40589 13.5941C6.07281 13.261 5.9565 12.7683 6.10546 12.3215L6.91227 9.90105C7.05062 9.4859 7.13728 9.22585 7.25529 8.97823C7.39428 8.68658 7.56463 8.41095 7.76333 8.1562C7.93203 7.93991 8.12588 7.74609 8.43533 7.43668L13.9754 1.89662ZM17.2195 2.7805C16.5677 2.12875 15.511 2.12875 14.8593 2.7805L14.5454 3.09435C14.5644 3.17423 14.5908 3.26941 14.6277 3.37557C14.7471 3.71979 14.9731 4.17312 15.4 4.60001C15.8269 5.02691 16.2802 5.25291 16.6244 5.37233C16.7306 5.40916 16.8257 5.43563 16.9056 5.45455L17.2195 5.14069C17.8712 4.48894 17.8712 3.43225 17.2195 2.7805ZM15.9209 6.43926C15.4909 6.25435 14.9901 5.9579 14.5161 5.4839C14.0421 5.00989 13.7456 4.50904 13.5607 4.07907L9.34788 8.2919C9.00079 8.639 8.86466 8.77665 8.74897 8.92498C8.60611 9.10814 8.48363 9.30632 8.38369 9.516C8.30276 9.68582 8.24052 9.86913 8.0853 10.3348L7.72538 11.4145L8.58543 12.2746L9.66517 11.9147C10.1308 11.7595 10.3142 11.6972 10.484 11.6163C10.6937 11.5164 10.8918 11.3939 11.075 11.251C11.2233 11.1353 11.361 10.9992 11.7081 10.6521L15.9209 6.43926Z" fill="white"/>
</svg>
