<svg width="20" height="20" viewBox="0 0 20 20" fill="none" xmlns="http://www.w3.org/2000/svg">
<path fill-rule="evenodd" clip-rule="evenodd" d="M12.2973 2.18456C13.8211 0.660729 16.2917 0.660729 17.8156 2.18456C19.3394 3.70839 19.3394 6.17901 17.8156 7.70284L9.91114 15.6073C9.45954 16.0589 9.1937 16.3248 8.89796 16.5554C8.54937 16.8273 8.17221 17.0604 7.77313 17.2506C7.43455 17.412 7.07787 17.5308 6.47194 17.7328L3.69601 18.6581L3.02761 18.8809C2.48547 19.0616 1.88777 18.9205 1.48368 18.5164C1.0796 18.1124 0.9385 17.5146 1.11921 16.9725L2.26731 13.5282C2.46927 12.9223 2.58815 12.5656 2.74951 12.227C2.9397 11.8279 3.17281 11.4507 3.44469 11.1022C3.67537 10.8064 3.94124 10.5406 4.39289 10.0889L12.2973 2.18456ZM3.66717 17.3501L6.03511 16.5608C6.69437 16.341 6.97447 16.2465 7.23536 16.1222C7.55247 15.9711 7.85218 15.7858 8.12918 15.5698C8.35706 15.392 8.56686 15.1838 9.05824 14.6924L15.3661 8.38449C14.7089 8.1527 13.8623 7.72304 13.0697 6.93044C12.2771 6.13784 11.8474 5.29118 11.6156 4.63398L5.30773 10.9419C4.81634 11.4333 4.60807 11.6431 4.43033 11.8709C4.21428 12.1479 4.02905 12.4476 3.87792 12.7648C3.75359 13.0256 3.65908 13.3057 3.43933 13.965L2.65002 16.3329L3.66717 17.3501ZM12.6295 3.62006C12.658 3.76586 12.7062 3.96405 12.7866 4.19575C12.9676 4.71737 13.3094 5.40242 13.9536 6.04656C14.5977 6.69069 15.2827 7.03255 15.8044 7.21352C16.0361 7.2939 16.2343 7.34207 16.3801 7.37057L16.9317 6.81896C17.9674 5.78328 17.9674 4.10412 16.9317 3.06844C15.896 2.03277 14.2168 2.03277 13.1812 3.06844L12.6295 3.62006Z" fill="#919191"/>
</svg>
