<svg width="16" height="16" viewBox="0 0 16 16" fill="none" xmlns="http://www.w3.org/2000/svg">
<path fill-rule="evenodd" clip-rule="evenodd" d="M15.1667 5.33331C15.1667 5.60946 14.9428 5.83331 14.6667 5.83331L11.3334 5.83331C11.0572 5.83331 10.8334 5.60946 10.8334 5.33331C10.8334 5.05717 11.0572 4.83331 11.3334 4.83331H14.6667C14.9428 4.83331 15.1667 5.05717 15.1667 5.33331Z" fill="#676767"/>
<path fill-rule="evenodd" clip-rule="evenodd" d="M15.1667 8.33331C15.1667 8.60946 14.9428 8.83331 14.6667 8.83331H12C11.7239 8.83331 11.5 8.60946 11.5 8.33331C11.5 8.05717 11.7239 7.83331 12 7.83331H14.6667C14.9428 7.83331 15.1667 8.05717 15.1667 8.33331Z" fill="#676767"/>
<path fill-rule="evenodd" clip-rule="evenodd" d="M9.17374 4.86145L9.46448 5.15219C9.95475 5.64245 10.3547 6.04238 10.6282 6.39006C10.9082 6.74605 11.1177 7.12197 11.1173 7.56591C11.1171 7.81426 11.0665 8.05998 10.9684 8.28816C10.7932 8.69605 10.4521 8.95846 10.0541 9.17468C9.66543 9.38584 9.13993 9.59497 8.49575 9.85134L8.36816 9.90211C7.96001 10.0646 7.85283 10.1125 7.77053 10.1777C7.69786 10.2353 7.63531 10.3046 7.58545 10.3828C7.52899 10.4713 7.4922 10.5828 7.37225 11.0054L7.36571 11.0285C7.28475 11.3138 7.21423 11.5623 7.13894 11.7545C7.06231 11.9502 6.95143 12.1695 6.74254 12.3226C6.50243 12.4987 6.20408 12.5763 5.90861 12.5395C5.65158 12.5075 5.44791 12.37 5.28567 12.2365C5.12626 12.1053 4.94362 11.9226 4.73392 11.7129L4.02698 11.006L2.58475 12.4482C2.38949 12.6434 2.07291 12.6434 1.87765 12.4482C1.68239 12.2529 1.68239 11.9363 1.87765 11.7411L3.31987 10.2988L2.61307 9.59204C2.40334 9.38233 2.22068 9.19969 2.08946 9.04027C1.95594 8.87803 1.81844 8.67436 1.78645 8.41733C1.74968 8.12186 1.82727 7.82351 2.00332 7.5834C2.15648 7.37451 2.37578 7.26363 2.57143 7.187C2.76368 7.1117 3.01217 7.04119 3.29748 6.96022L3.32052 6.95369C3.74313 6.83374 3.85464 6.79695 3.94316 6.74049C4.02133 6.69063 4.09063 6.62808 4.1482 6.5554C4.21341 6.47311 4.26138 6.36594 4.42383 5.95777L4.47459 5.83023C4.73096 5.18603 4.9401 4.66052 5.15126 4.27183C5.36748 3.87384 5.6299 3.53277 6.03778 3.35752C6.26596 3.25948 6.51168 3.20882 6.76003 3.20862C7.20397 3.20826 7.57989 3.41773 7.93588 3.69776C8.28355 3.97123 8.68349 4.37118 9.17374 4.86145ZM5.42409 10.9888L4.38633 9.95109L4.38058 9.94525L4.37474 9.9395L3.33709 8.90185C3.10549 8.67025 2.95814 8.5221 2.86158 8.40479C2.80209 8.3325 2.78297 8.29605 2.77796 8.28531C2.7753 8.24876 2.78477 8.21235 2.8049 8.18172C2.81451 8.17479 2.84896 8.15227 2.93613 8.11812C3.07761 8.06271 3.27846 8.00512 3.59355 7.91569L3.65223 7.89907C3.98833 7.80394 4.25284 7.72907 4.48092 7.58359C4.65289 7.4739 4.80535 7.33628 4.93202 7.1764C5.10002 6.96435 5.20149 6.70887 5.33042 6.38423L5.39155 6.23055C5.66305 5.54838 5.85073 5.07912 6.02996 4.7492C6.20747 4.42247 6.33242 4.31932 6.43254 4.2763C6.53626 4.23174 6.64795 4.20871 6.76084 4.20862C6.86982 4.20853 7.02537 4.25385 7.31763 4.48374C7.61273 4.71586 7.9707 5.07263 8.48988 5.5918L8.73413 5.83606C9.25331 6.35523 9.61007 6.71321 9.8422 7.00831C10.0721 7.30057 10.1174 7.45612 10.1173 7.5651C10.1172 7.67799 10.0942 7.78968 10.0496 7.8934C10.0066 7.99352 9.90347 8.11847 9.57674 8.29598C9.24682 8.47521 8.77756 8.66289 8.09538 8.93439L7.94171 8.99552C7.61709 9.12445 7.36158 9.22592 7.14954 9.39392C6.98966 9.52059 6.85204 9.67305 6.74235 9.84502C6.59687 10.0731 6.522 10.3376 6.42687 10.6737L6.41025 10.7324C6.32082 11.0475 6.26323 11.2483 6.20781 11.3898C6.17367 11.477 6.15115 11.5114 6.14422 11.521C6.11359 11.5412 6.07718 11.5506 6.04063 11.548C6.02989 11.543 5.99344 11.5239 5.92116 11.4644C5.80384 11.3678 5.65569 11.2205 5.42409 10.9888Z" fill="#676767"/>
<path d="M14.6667 11.8333C14.9428 11.8333 15.1667 11.6094 15.1667 11.3333C15.1667 11.0572 14.9428 10.8333 14.6667 10.8333H8.66668C8.39053 10.8333 8.16668 11.0572 8.16668 11.3333C8.16668 11.6094 8.39053 11.8333 8.66668 11.8333H14.6667Z" fill="#676767"/>
</svg>
