<svg width="103" height="100" viewBox="0 0 103 100" fill="none" xmlns="http://www.w3.org/2000/svg">
<g filter="url(#filter0_di_92_12957)">
<rect x="23.8911" y="7" width="67.3953" height="63" rx="13.186" transform="rotate(9.95504 23.8911 7)" fill="#E0E6F9"/>
<rect x="24.2971" y="7.57891" width="66.3953" height="62" rx="12.686" transform="rotate(9.95504 24.2971 7.57891)" stroke="#DDE5FF"/>
</g>
<g clip-path="url(#clip0_92_12957)">
<path fill-rule="evenodd" clip-rule="evenodd" d="M54.9133 27.2323L57.3477 27.6598C57.9952 27.7735 58.4279 28.3905 58.3142 29.038C58.2005 29.6855 57.5835 30.1182 56.936 30.0045L54.5912 29.5928C50.8737 28.9399 48.203 28.4735 46.123 28.3899C44.0774 28.3076 42.7829 28.607 41.7361 29.3411C40.6892 30.0752 39.9667 31.1903 39.3471 33.1414C38.717 35.1255 38.2456 37.7953 37.5928 41.5129C36.94 45.2304 36.4736 47.9011 36.3899 49.9812C36.3077 52.0267 36.6071 53.3212 37.3412 54.368C38.0753 55.4149 39.1903 56.1374 41.1415 56.757C43.1256 57.3871 45.7954 57.8585 49.5129 58.5113C53.2305 59.1641 55.9011 59.6306 57.9812 59.7142C60.0267 59.7965 61.3212 59.497 62.3681 58.7629C63.4149 58.0288 64.1375 56.9138 64.7571 54.9626C65.3871 52.9785 65.8585 50.3087 66.5113 46.5912L66.9231 44.2464C67.0368 43.599 67.6539 43.1662 68.3014 43.2799C68.9488 43.3937 69.3816 44.0107 69.2678 44.6582L68.8403 47.0926C68.2067 50.701 67.7101 53.5289 67.026 55.6832C66.3258 57.8882 65.3793 59.559 63.7349 60.7121C62.0905 61.8652 60.1972 62.1859 57.8856 62.0929C55.6271 62.0021 52.7993 61.5055 49.1909 60.8718L49.0115 60.8403C45.4031 60.2067 42.5753 59.7101 40.421 59.026C38.2159 58.3258 36.5452 57.3792 35.392 55.7349C34.2389 54.0905 33.9183 52.1972 34.0112 49.8855C34.102 47.627 34.5986 44.7992 35.2323 41.1908L35.2638 41.0114C35.8975 37.403 36.394 34.5752 37.0781 32.4209C37.7783 30.2159 38.7249 28.5451 40.3693 27.392C42.0136 26.2389 43.9069 25.9182 46.2186 26.0112C48.4771 26.102 51.3049 26.5986 54.9133 27.2323ZM62.1785 30.1612C64.6922 28.3985 68.159 29.0073 69.9217 31.521C71.6845 34.0347 71.0757 37.5015 68.5619 39.2642L56.3449 47.8314C55.6626 48.3099 55.2352 48.6097 54.774 48.8549C54.2307 49.1437 53.6575 49.3724 53.0646 49.5371C52.5613 49.6769 52.045 49.7538 51.2207 49.8765L46.4147 50.5926C45.5273 50.7248 44.6415 50.3444 44.1264 49.6099C43.6114 48.8754 43.5555 47.9129 43.9821 47.1237L46.2928 42.8493C46.6891 42.1161 46.9373 41.6569 47.2402 41.2313C47.597 40.73 48.0074 40.2691 48.464 39.8567C48.8517 39.5065 49.2791 39.2068 49.9615 38.7283L62.1785 30.1612ZM67.9726 32.8878C66.9647 31.4506 64.9826 31.1025 63.5453 32.1104L62.8532 32.5957C62.8624 32.7518 62.8807 32.939 62.9148 33.1503C63.0254 33.8353 63.3 34.7601 63.9602 35.7015C64.6203 36.6429 65.3962 37.2161 66.0026 37.5535C66.1896 37.6576 66.3594 37.7386 66.503 37.8004L67.1951 37.3151C68.6324 36.3072 68.9804 34.3251 67.9726 32.8878ZM64.3315 39.3232C63.5859 38.8347 62.744 38.1136 62.011 37.0683C61.278 36.0231 60.8869 34.9859 60.6817 34.1185L51.3916 40.6332C50.6262 41.1699 50.3255 41.3833 50.0596 41.6234C49.7313 41.9199 49.4363 42.2513 49.1797 42.6117C48.972 42.9036 48.7949 43.227 48.3503 44.0493L47.3195 45.9561L48.6495 47.8527L50.7934 47.5333C51.718 47.3955 52.0824 47.3391 52.4276 47.2433C52.8538 47.1249 53.2659 46.9604 53.6566 46.7528C53.9729 46.5846 54.2759 46.3746 55.0414 45.8379L64.3315 39.3232Z" fill="#1C274C"/>
</g>
<defs>
<filter id="filter0_di_92_12957" x="0.419067" y="0.279532" width="102.434" height="98.8643" filterUnits="userSpaceOnUse" color-interpolation-filters="sRGB">
<feFlood flood-opacity="0" result="BackgroundImageFix"/>
<feColorMatrix in="SourceAlpha" type="matrix" values="0 0 0 0 0 0 0 0 0 0 0 0 0 0 0 0 0 0 127 0" result="hardAlpha"/>
<feOffset dy="5.86047"/>
<feGaussianBlur stdDeviation="7.54535"/>
<feComposite in2="hardAlpha" operator="out"/>
<feColorMatrix type="matrix" values="0 0 0 0 0 0 0 0 0 0 0 0 0 0 0 0 0 0 0.1 0"/>
<feBlend mode="normal" in2="BackgroundImageFix" result="effect1_dropShadow_92_12957"/>
<feBlend mode="normal" in="SourceGraphic" in2="effect1_dropShadow_92_12957" result="shape"/>
<feColorMatrix in="SourceAlpha" type="matrix" values="0 0 0 0 0 0 0 0 0 0 0 0 0 0 0 0 0 0 127 0" result="hardAlpha"/>
<feOffset dx="-1.46512" dy="1.46512"/>
<feGaussianBlur stdDeviation="1.1"/>
<feComposite in2="hardAlpha" operator="arithmetic" k2="-1" k3="1"/>
<feColorMatrix type="matrix" values="0 0 0 0 1 0 0 0 0 1 0 0 0 0 1 0 0 0 0.6 0"/>
<feBlend mode="normal" in2="shape" result="effect2_innerShadow_92_12957"/>
</filter>
<clipPath id="clip0_92_12957">
<rect width="38.09" height="38.09" fill="white" transform="translate(36.5881 22) rotate(9.96)"/>
</clipPath>
</defs>
</svg>
