<svg width="20" height="20" viewBox="0 0 20 20" fill="none" xmlns="http://www.w3.org/2000/svg">
<path fill-rule="evenodd" clip-rule="evenodd" d="M9.99996 1.04163C10.1824 1.04163 10.3558 1.12135 10.4745 1.25988L12.9745 4.17655C13.1991 4.43863 13.1688 4.83319 12.9067 5.05783C12.6446 5.28247 12.2501 5.25212 12.0254 4.99004L10.625 3.35616L10.625 12.5C10.625 12.8451 10.3451 13.125 9.99996 13.125C9.65478 13.125 9.37496 12.8451 9.37496 12.5L9.37496 3.35616L7.9745 4.99004C7.74986 5.25212 7.35529 5.28247 7.09322 5.05783C6.83114 4.83319 6.80079 4.43863 7.02543 4.17655L9.52543 1.25988C9.64416 1.12135 9.81751 1.04163 9.99996 1.04163ZM5.82981 6.8766C6.17499 6.87467 6.45636 7.15294 6.45828 7.49811C6.46021 7.84328 6.18195 8.12466 5.83677 8.12658C4.92552 8.13165 4.27962 8.15531 3.78942 8.24536C3.31707 8.33212 3.04368 8.47144 2.8408 8.67431C2.61017 8.90495 2.45979 9.22876 2.37758 9.84024C2.29295 10.4697 2.29163 11.304 2.29163 12.5001V13.3335C2.29163 14.5297 2.29295 15.3639 2.37758 15.9934C2.45979 16.6049 2.61017 16.9287 2.8408 17.1593C3.07144 17.3899 3.39525 17.5403 4.00673 17.6225C4.63619 17.7071 5.47045 17.7085 6.66663 17.7085H13.3333C14.5295 17.7085 15.3637 17.7071 15.9932 17.6225C16.6047 17.5403 16.9285 17.3899 17.1591 17.1593C17.3898 16.9287 17.5401 16.6049 17.6223 15.9934C17.707 15.3639 17.7083 14.5297 17.7083 13.3335V12.5001C17.7083 11.304 17.707 10.4697 17.6223 9.84024C17.5401 9.22876 17.3898 8.90495 17.1591 8.67431C16.9562 8.47144 16.6828 8.33212 16.2105 8.24536C15.7203 8.15531 15.0744 8.13165 14.1631 8.12658C13.818 8.12466 13.5397 7.84328 13.5416 7.49811C13.5436 7.15293 13.8249 6.87467 14.1701 6.8766C15.0714 6.88161 15.8225 6.90318 16.4363 7.01593C17.068 7.13195 17.6056 7.35299 18.043 7.79043C18.5446 8.29203 18.7603 8.92359 18.8612 9.67368C18.9583 10.3962 18.9583 11.3148 18.9583 12.4544V13.3792C18.9583 14.5189 18.9583 15.4375 18.8612 16.1599C18.7603 16.91 18.5446 17.5416 18.043 18.0432C17.5414 18.5448 16.9098 18.7605 16.1598 18.8614C15.4373 18.9585 14.5187 18.9585 13.379 18.9585H6.6209C5.48124 18.9585 4.56264 18.9585 3.84017 18.8614C3.09008 18.7605 2.45851 18.5448 1.95692 18.0432C1.45532 17.5416 1.23958 16.91 1.13873 16.1599C1.0416 15.4375 1.04161 14.5189 1.04163 13.3792V12.4544C1.04161 11.3148 1.0416 10.3962 1.13873 9.67368C1.23958 8.92359 1.45532 8.29203 1.95692 7.79043C2.39436 7.35299 2.93192 7.13195 3.56359 7.01593C4.17739 6.90318 4.92854 6.88161 5.82981 6.8766Z" fill="white"/>
</svg>
