<svg width="102" height="98" viewBox="0 0 102 98" fill="none" xmlns="http://www.w3.org/2000/svg">
<g filter="url(#filter0_di_92_12949)">
<rect x="14" y="16.3887" width="67.3953" height="63" rx="13.186" transform="rotate(-7.15008 14 16.3887)" fill="#E0E6F9"/>
<rect x="14.5583" y="16.8225" width="66.3953" height="62" rx="12.686" transform="rotate(-7.15008 14.5583 16.8225)" stroke="#DDE5FF"/>
</g>
<path fill-rule="evenodd" clip-rule="evenodd" d="M48.8952 24.3837C49.2801 24.3351 49.6669 24.4572 49.9542 24.7177L56.0034 30.2045C56.5469 30.6975 56.5879 31.5378 56.0949 32.0813C55.6019 32.6249 54.7616 32.6659 54.218 32.1728L50.8294 29.0993L53.2624 48.3857C53.3542 49.1137 52.8385 49.7784 52.1104 49.8703C51.3824 49.9621 50.7177 49.4464 50.6259 48.7183L48.1928 29.4319L45.6737 33.2507C45.2696 33.8633 44.4454 34.0323 43.8329 33.6282C43.2203 33.2241 43.0513 32.4 43.4554 31.7874L47.9524 24.9703C48.166 24.6465 48.5104 24.4322 48.8952 24.3837ZM41.652 37.8006C42.3796 37.7047 43.0471 38.2167 43.143 38.9443C43.2389 39.6718 42.7268 40.3394 41.9993 40.4353C40.0786 40.6884 38.7225 40.9102 37.7125 41.2306C36.7393 41.5392 36.1998 41.9058 35.8258 42.3877C35.4007 42.9356 35.1697 43.6586 35.159 44.9702C35.148 46.3204 35.3672 48.0804 35.6855 50.6034L35.9072 52.3611C36.2255 54.8842 36.4503 56.6435 36.7963 57.9486C37.1324 59.2165 37.5357 59.8595 38.0835 60.2846C38.6314 60.7097 39.3544 60.9407 40.666 60.9514C42.0162 60.9624 43.7762 60.7432 46.2992 60.4249L60.3608 58.651C62.8838 58.3327 64.6431 58.108 65.9483 57.762C67.2162 57.4259 67.8592 57.0225 68.2843 56.4747C68.7094 55.9269 68.9404 55.2039 68.9511 53.8922C68.9621 52.542 68.7429 50.782 68.4246 48.259L68.2029 46.5013C67.8846 43.9783 67.6598 42.219 67.3138 40.9138C66.9777 39.6459 66.5744 39.003 66.0265 38.5779C65.5446 38.2039 64.9309 37.9828 63.9115 37.9255C62.8536 37.866 61.485 37.988 59.5616 38.2197C58.833 38.3075 58.1712 37.7881 58.0834 37.0595C57.9956 36.331 58.5151 35.6692 59.2437 35.5814C61.146 35.3521 62.7361 35.1978 64.0607 35.2723C65.4239 35.3489 66.6166 35.6721 67.6557 36.4784C68.8471 37.4029 69.4702 38.6776 69.8825 40.2329C70.2796 41.7309 70.524 43.6684 70.8272 46.0723L71.0733 48.0228C71.3766 50.4266 71.6211 52.3642 71.6084 53.9139C71.5953 55.5229 71.3083 56.9124 70.3838 58.1038C69.4592 59.2953 68.1845 59.9184 66.6293 60.3307C65.1312 60.7278 63.1937 60.9722 60.7899 61.2754L46.5354 63.0736C44.1316 63.3769 42.1941 63.6214 40.6443 63.6087C39.0354 63.5956 37.6459 63.3086 36.4544 62.3841C35.263 61.4596 34.6399 60.1849 34.2276 58.6296C33.8304 57.1315 33.586 55.194 33.2828 52.7902L33.0368 50.8396C32.7335 48.4358 32.489 46.4982 32.5017 44.9485C32.5148 43.3396 32.8018 41.9501 33.7263 40.7586C34.5326 39.7195 35.6076 39.1103 36.9091 38.6975C38.1737 38.2964 39.7524 38.051 41.652 37.8006Z" fill="#0E1A45"/>
<defs>
<filter id="filter0_di_92_12949" x="0.868652" y="0.729239" width="100.975" height="97.1614" filterUnits="userSpaceOnUse" color-interpolation-filters="sRGB">
<feFlood flood-opacity="0" result="BackgroundImageFix"/>
<feColorMatrix in="SourceAlpha" type="matrix" values="0 0 0 0 0 0 0 0 0 0 0 0 0 0 0 0 0 0 127 0" result="hardAlpha"/>
<feOffset dy="5.86047"/>
<feGaussianBlur stdDeviation="7.54535"/>
<feComposite in2="hardAlpha" operator="out"/>
<feColorMatrix type="matrix" values="0 0 0 0 0 0 0 0 0 0 0 0 0 0 0 0 0 0 0.1 0"/>
<feBlend mode="normal" in2="BackgroundImageFix" result="effect1_dropShadow_92_12949"/>
<feBlend mode="normal" in="SourceGraphic" in2="effect1_dropShadow_92_12949" result="shape"/>
<feColorMatrix in="SourceAlpha" type="matrix" values="0 0 0 0 0 0 0 0 0 0 0 0 0 0 0 0 0 0 127 0" result="hardAlpha"/>
<feOffset dx="-1.46512" dy="1.46512"/>
<feGaussianBlur stdDeviation="1.1"/>
<feComposite in2="hardAlpha" operator="arithmetic" k2="-1" k3="1"/>
<feColorMatrix type="matrix" values="0 0 0 0 1 0 0 0 0 1 0 0 0 0 1 0 0 0 0.6 0"/>
<feBlend mode="normal" in2="shape" result="effect2_innerShadow_92_12949"/>
</filter>
</defs>
</svg>
